<mxfile host="app.diagrams.net" agent="Mozilla/5.0 (Windows NT 10.0; Win64; x64) AppleWebKit/537.36 (KHTML, like Gecko) Chrome/132.0.0.0 Safari/537.36" version="26.0.9">
  <diagram name="Input" id="0AQRP-4zMPJ2rukCqGE8">
    <mxGraphModel dx="1430" dy="1857" grid="1" gridSize="10" guides="1" tooltips="1" connect="1" arrows="1" fold="1" page="1" pageScale="1" pageWidth="850" pageHeight="1100" math="0" shadow="0">
      <root>
        <mxCell id="0" />
        <mxCell id="1" parent="0" />
        <mxCell id="VoOXDM4bnQnNQeRaRrDY-19" value="Tetris Input Handler" style="verticalLabelPosition=middle;verticalAlign=top;html=1;shape=mxgraph.basic.patternFillRect;fillStyle=diag;step=5;fillStrokeWidth=0.2;fillStrokeColor=#dddddd;fillColor=#e1d5e7;strokeColor=#9673a6;align=left;labelPosition=center;labelBorderColor=none;labelBackgroundColor=default;textShadow=0;" vertex="1" parent="1">
          <mxGeometry x="440" y="-100" width="1150" height="700" as="geometry" />
        </mxCell>
        <mxCell id="egNsY3Ynns_5zG-FmYVZ-10" style="edgeStyle=orthogonalEdgeStyle;rounded=0;orthogonalLoop=1;jettySize=auto;html=1;" parent="1" source="egNsY3Ynns_5zG-FmYVZ-8" target="egNsY3Ynns_5zG-FmYVZ-9" edge="1">
          <mxGeometry relative="1" as="geometry" />
        </mxCell>
        <mxCell id="egNsY3Ynns_5zG-FmYVZ-8" value="Gameplay&amp;nbsp;&lt;div&gt;Starts&lt;/div&gt;" style="strokeWidth=1;html=1;shape=mxgraph.flowchart.terminator;whiteSpace=wrap;" parent="1" vertex="1">
          <mxGeometry x="40" y="40" width="100" height="60" as="geometry" />
        </mxCell>
        <mxCell id="-r5Iax4AE7M6-HFP3YKB-2" style="edgeStyle=orthogonalEdgeStyle;rounded=0;orthogonalLoop=1;jettySize=auto;html=1;entryX=0.5;entryY=1;entryDx=0;entryDy=0;" edge="1" parent="1" source="egNsY3Ynns_5zG-FmYVZ-9" target="-r5Iax4AE7M6-HFP3YKB-1">
          <mxGeometry relative="1" as="geometry">
            <Array as="points">
              <mxPoint x="380" y="70" />
              <mxPoint x="380" y="-30" />
            </Array>
          </mxGeometry>
        </mxCell>
        <mxCell id="VoOXDM4bnQnNQeRaRrDY-2" style="edgeStyle=orthogonalEdgeStyle;rounded=0;orthogonalLoop=1;jettySize=auto;html=1;" edge="1" parent="1" source="egNsY3Ynns_5zG-FmYVZ-9" target="VoOXDM4bnQnNQeRaRrDY-1">
          <mxGeometry relative="1" as="geometry">
            <Array as="points">
              <mxPoint x="380" y="70" />
              <mxPoint x="380" y="295" />
            </Array>
          </mxGeometry>
        </mxCell>
        <mxCell id="VoOXDM4bnQnNQeRaRrDY-4" style="edgeStyle=orthogonalEdgeStyle;rounded=0;orthogonalLoop=1;jettySize=auto;html=1;entryX=0;entryY=0.5;entryDx=0;entryDy=0;" edge="1" parent="1" source="egNsY3Ynns_5zG-FmYVZ-9" target="VoOXDM4bnQnNQeRaRrDY-3">
          <mxGeometry relative="1" as="geometry" />
        </mxCell>
        <mxCell id="egNsY3Ynns_5zG-FmYVZ-9" value="Controller&amp;nbsp;&lt;div&gt;Input&lt;/div&gt;" style="shape=parallelogram;html=1;strokeWidth=1;perimeter=parallelogramPerimeter;whiteSpace=wrap;rounded=1;arcSize=12;size=0.23;" parent="1" vertex="1">
          <mxGeometry x="160" y="40" width="100" height="60" as="geometry" />
        </mxCell>
        <mxCell id="egNsY3Ynns_5zG-FmYVZ-49" style="edgeStyle=orthogonalEdgeStyle;rounded=0;orthogonalLoop=1;jettySize=auto;html=1;entryX=0;entryY=0.5;entryDx=0;entryDy=0;fontFamily=Helvetica;fontSize=12;fontColor=default;" parent="1" source="egNsY3Ynns_5zG-FmYVZ-44" target="egNsY3Ynns_5zG-FmYVZ-48" edge="1">
          <mxGeometry relative="1" as="geometry" />
        </mxCell>
        <mxCell id="egNsY3Ynns_5zG-FmYVZ-44" value="Invoke Move Horizontal" style="rounded=0;whiteSpace=wrap;html=1;strokeColor=default;strokeWidth=1;align=center;verticalAlign=middle;fontFamily=Helvetica;fontSize=12;fontColor=default;fillColor=default;" parent="1" vertex="1">
          <mxGeometry x="640" y="40" width="120" height="60" as="geometry" />
        </mxCell>
        <mxCell id="egNsY3Ynns_5zG-FmYVZ-71" style="edgeStyle=orthogonalEdgeStyle;rounded=0;orthogonalLoop=1;jettySize=auto;html=1;entryX=0;entryY=0.5;entryDx=0;entryDy=0;fontFamily=Helvetica;fontSize=12;fontColor=default;" parent="1" source="egNsY3Ynns_5zG-FmYVZ-48" target="egNsY3Ynns_5zG-FmYVZ-69" edge="1">
          <mxGeometry relative="1" as="geometry" />
        </mxCell>
        <mxCell id="egNsY3Ynns_5zG-FmYVZ-48" value="Generate Translated Coordinates" style="rounded=0;whiteSpace=wrap;html=1;strokeColor=default;strokeWidth=1;align=center;verticalAlign=middle;fontFamily=Helvetica;fontSize=12;fontColor=default;fillColor=default;" parent="1" vertex="1">
          <mxGeometry x="800" y="40" width="120" height="60" as="geometry" />
        </mxCell>
        <mxCell id="egNsY3Ynns_5zG-FmYVZ-55" style="edgeStyle=orthogonalEdgeStyle;rounded=0;orthogonalLoop=1;jettySize=auto;html=1;entryX=0;entryY=0.5;entryDx=0;entryDy=0;fontFamily=Helvetica;fontSize=12;fontColor=default;exitX=1;exitY=0.5;exitDx=0;exitDy=0;" parent="1" source="egNsY3Ynns_5zG-FmYVZ-69" target="egNsY3Ynns_5zG-FmYVZ-54" edge="1">
          <mxGeometry relative="1" as="geometry">
            <mxPoint x="1019.9999999999998" y="230.00000000000023" as="sourcePoint" />
          </mxGeometry>
        </mxCell>
        <mxCell id="egNsY3Ynns_5zG-FmYVZ-56" value="Yes" style="edgeLabel;html=1;align=center;verticalAlign=middle;resizable=0;points=[];strokeColor=default;strokeWidth=1;fontFamily=Helvetica;fontSize=12;fontColor=default;fillColor=default;" parent="egNsY3Ynns_5zG-FmYVZ-55" vertex="1" connectable="0">
          <mxGeometry x="0.0998" y="-1" relative="1" as="geometry">
            <mxPoint x="-190" y="-1" as="offset" />
          </mxGeometry>
        </mxCell>
        <mxCell id="egNsY3Ynns_5zG-FmYVZ-58" style="edgeStyle=orthogonalEdgeStyle;rounded=0;orthogonalLoop=1;jettySize=auto;html=1;fontFamily=Helvetica;fontSize=12;fontColor=default;exitX=0.5;exitY=0;exitDx=0;exitDy=0;entryX=0.5;entryY=1;entryDx=0;entryDy=0;entryPerimeter=0;" parent="1" source="egNsY3Ynns_5zG-FmYVZ-69" target="egNsY3Ynns_5zG-FmYVZ-60" edge="1">
          <mxGeometry relative="1" as="geometry">
            <mxPoint x="1019.9999999999998" y="110.00000000000023" as="sourcePoint" />
            <mxPoint x="1120" y="60.00000000000023" as="targetPoint" />
          </mxGeometry>
        </mxCell>
        <mxCell id="egNsY3Ynns_5zG-FmYVZ-59" value="No" style="edgeLabel;html=1;align=center;verticalAlign=middle;resizable=0;points=[];strokeColor=default;strokeWidth=1;fontFamily=Helvetica;fontSize=12;fontColor=default;fillColor=default;" parent="egNsY3Ynns_5zG-FmYVZ-58" vertex="1" connectable="0">
          <mxGeometry x="-0.1771" relative="1" as="geometry">
            <mxPoint y="6" as="offset" />
          </mxGeometry>
        </mxCell>
        <mxCell id="egNsY3Ynns_5zG-FmYVZ-54" value="Apply Translated Coordinates" style="rounded=0;whiteSpace=wrap;html=1;strokeColor=default;strokeWidth=1;align=center;verticalAlign=middle;fontFamily=Helvetica;fontSize=12;fontColor=default;fillColor=default;" parent="1" vertex="1">
          <mxGeometry x="1440" y="40" width="120" height="60" as="geometry" />
        </mxCell>
        <mxCell id="egNsY3Ynns_5zG-FmYVZ-60" value="Do Nothing" style="strokeWidth=1;html=1;shape=mxgraph.flowchart.terminator;whiteSpace=wrap;" parent="1" vertex="1">
          <mxGeometry x="950" y="-80" width="100" height="60" as="geometry" />
        </mxCell>
        <mxCell id="egNsY3Ynns_5zG-FmYVZ-68" style="edgeStyle=orthogonalEdgeStyle;rounded=0;orthogonalLoop=1;jettySize=auto;html=1;fontFamily=Helvetica;fontSize=12;fontColor=default;" parent="1" source="egNsY3Ynns_5zG-FmYVZ-61" target="egNsY3Ynns_5zG-FmYVZ-67" edge="1">
          <mxGeometry relative="1" as="geometry" />
        </mxCell>
        <mxCell id="egNsY3Ynns_5zG-FmYVZ-61" value="Invoke Rotate" style="rounded=0;whiteSpace=wrap;html=1;strokeColor=default;strokeWidth=1;align=center;verticalAlign=middle;fontFamily=Helvetica;fontSize=12;fontColor=default;fillColor=default;" parent="1" vertex="1">
          <mxGeometry x="640" y="265" width="120" height="60" as="geometry" />
        </mxCell>
        <mxCell id="egNsY3Ynns_5zG-FmYVZ-73" style="edgeStyle=orthogonalEdgeStyle;rounded=0;orthogonalLoop=1;jettySize=auto;html=1;fontFamily=Helvetica;fontSize=12;fontColor=default;" parent="1" source="egNsY3Ynns_5zG-FmYVZ-67" target="egNsY3Ynns_5zG-FmYVZ-72" edge="1">
          <mxGeometry relative="1" as="geometry" />
        </mxCell>
        <mxCell id="egNsY3Ynns_5zG-FmYVZ-67" value="Generate Rotated Coordinates" style="rounded=0;whiteSpace=wrap;html=1;strokeColor=default;strokeWidth=1;align=center;verticalAlign=middle;fontFamily=Helvetica;fontSize=12;fontColor=default;fillColor=default;" parent="1" vertex="1">
          <mxGeometry x="800" y="265" width="120" height="60" as="geometry" />
        </mxCell>
        <mxCell id="egNsY3Ynns_5zG-FmYVZ-69" value="Are Coordinates Valid?" style="rhombus;whiteSpace=wrap;html=1;strokeColor=default;strokeWidth=1;align=center;verticalAlign=middle;fontFamily=Helvetica;fontSize=12;fontColor=default;fillColor=default;" parent="1" vertex="1">
          <mxGeometry x="960" y="30" width="80" height="80" as="geometry" />
        </mxCell>
        <mxCell id="egNsY3Ynns_5zG-FmYVZ-77" style="edgeStyle=orthogonalEdgeStyle;rounded=0;orthogonalLoop=1;jettySize=auto;html=1;fontFamily=Helvetica;fontSize=12;fontColor=default;" parent="1" source="egNsY3Ynns_5zG-FmYVZ-72" target="egNsY3Ynns_5zG-FmYVZ-74" edge="1">
          <mxGeometry relative="1" as="geometry" />
        </mxCell>
        <mxCell id="egNsY3Ynns_5zG-FmYVZ-78" value="Yes" style="edgeLabel;html=1;align=center;verticalAlign=middle;resizable=0;points=[];strokeColor=default;strokeWidth=1;fontFamily=Helvetica;fontSize=12;fontColor=default;fillColor=default;" parent="egNsY3Ynns_5zG-FmYVZ-77" vertex="1" connectable="0">
          <mxGeometry x="-0.1397" y="1" relative="1" as="geometry">
            <mxPoint x="-138" y="1" as="offset" />
          </mxGeometry>
        </mxCell>
        <mxCell id="egNsY3Ynns_5zG-FmYVZ-83" style="edgeStyle=orthogonalEdgeStyle;rounded=0;orthogonalLoop=1;jettySize=auto;html=1;fontFamily=Helvetica;fontSize=12;fontColor=default;" parent="1" source="egNsY3Ynns_5zG-FmYVZ-72" target="egNsY3Ynns_5zG-FmYVZ-82" edge="1">
          <mxGeometry relative="1" as="geometry" />
        </mxCell>
        <mxCell id="egNsY3Ynns_5zG-FmYVZ-85" value="No" style="edgeLabel;html=1;align=center;verticalAlign=middle;resizable=0;points=[];strokeColor=default;strokeWidth=1;fontFamily=Helvetica;fontSize=12;fontColor=default;fillColor=default;" parent="egNsY3Ynns_5zG-FmYVZ-83" vertex="1" connectable="0">
          <mxGeometry x="-0.3214" y="1" relative="1" as="geometry">
            <mxPoint as="offset" />
          </mxGeometry>
        </mxCell>
        <mxCell id="egNsY3Ynns_5zG-FmYVZ-72" value="Are Coordinates Valid?" style="rhombus;whiteSpace=wrap;html=1;strokeColor=default;strokeWidth=1;align=center;verticalAlign=middle;fontFamily=Helvetica;fontSize=12;fontColor=default;fillColor=default;" parent="1" vertex="1">
          <mxGeometry x="970" y="255" width="80" height="80" as="geometry" />
        </mxCell>
        <mxCell id="egNsY3Ynns_5zG-FmYVZ-74" value="Apply Rotation Matrix" style="rounded=0;whiteSpace=wrap;html=1;strokeColor=default;strokeWidth=1;align=center;verticalAlign=middle;fontFamily=Helvetica;fontSize=12;fontColor=default;fillColor=default;" parent="1" vertex="1">
          <mxGeometry x="1440" y="265" width="120" height="60" as="geometry" />
        </mxCell>
        <mxCell id="egNsY3Ynns_5zG-FmYVZ-86" style="edgeStyle=orthogonalEdgeStyle;rounded=0;orthogonalLoop=1;jettySize=auto;html=1;fontFamily=Helvetica;fontSize=12;fontColor=default;" parent="1" source="egNsY3Ynns_5zG-FmYVZ-82" target="egNsY3Ynns_5zG-FmYVZ-84" edge="1">
          <mxGeometry relative="1" as="geometry" />
        </mxCell>
        <mxCell id="egNsY3Ynns_5zG-FmYVZ-89" value="Yes" style="edgeLabel;html=1;align=center;verticalAlign=middle;resizable=0;points=[];strokeColor=default;strokeWidth=1;fontFamily=Helvetica;fontSize=12;fontColor=default;fillColor=default;" parent="egNsY3Ynns_5zG-FmYVZ-86" vertex="1" connectable="0">
          <mxGeometry x="-0.0526" y="2" relative="1" as="geometry">
            <mxPoint as="offset" />
          </mxGeometry>
        </mxCell>
        <mxCell id="egNsY3Ynns_5zG-FmYVZ-94" style="edgeStyle=orthogonalEdgeStyle;rounded=0;orthogonalLoop=1;jettySize=auto;html=1;fontFamily=Helvetica;fontSize=12;fontColor=default;" parent="1" source="egNsY3Ynns_5zG-FmYVZ-82" target="egNsY3Ynns_5zG-FmYVZ-93" edge="1">
          <mxGeometry relative="1" as="geometry" />
        </mxCell>
        <mxCell id="egNsY3Ynns_5zG-FmYVZ-95" value="No" style="edgeLabel;html=1;align=center;verticalAlign=middle;resizable=0;points=[];strokeColor=default;strokeWidth=1;fontFamily=Helvetica;fontSize=12;fontColor=default;fillColor=default;" parent="egNsY3Ynns_5zG-FmYVZ-94" vertex="1" connectable="0">
          <mxGeometry x="-0.3759" y="1" relative="1" as="geometry">
            <mxPoint x="-11" y="-1" as="offset" />
          </mxGeometry>
        </mxCell>
        <mxCell id="egNsY3Ynns_5zG-FmYVZ-82" value="Is Wall Kick?" style="rhombus;whiteSpace=wrap;html=1;strokeColor=default;strokeWidth=1;align=center;verticalAlign=middle;fontFamily=Helvetica;fontSize=12;fontColor=default;fillColor=default;" parent="1" vertex="1">
          <mxGeometry x="970" y="440" width="80" height="80" as="geometry" />
        </mxCell>
        <mxCell id="egNsY3Ynns_5zG-FmYVZ-90" style="edgeStyle=orthogonalEdgeStyle;rounded=0;orthogonalLoop=1;jettySize=auto;html=1;fontFamily=Helvetica;fontSize=12;fontColor=default;" parent="1" source="egNsY3Ynns_5zG-FmYVZ-84" target="egNsY3Ynns_5zG-FmYVZ-88" edge="1">
          <mxGeometry relative="1" as="geometry" />
        </mxCell>
        <mxCell id="egNsY3Ynns_5zG-FmYVZ-84" value="Generate Wall Kick Coordinates" style="rounded=0;whiteSpace=wrap;html=1;strokeColor=default;strokeWidth=1;align=center;verticalAlign=middle;fontFamily=Helvetica;fontSize=12;fontColor=default;fillColor=default;" parent="1" vertex="1">
          <mxGeometry x="1120" y="450" width="120" height="60" as="geometry" />
        </mxCell>
        <mxCell id="egNsY3Ynns_5zG-FmYVZ-100" style="edgeStyle=orthogonalEdgeStyle;rounded=0;orthogonalLoop=1;jettySize=auto;html=1;fontFamily=Helvetica;fontSize=12;fontColor=default;" parent="1" source="egNsY3Ynns_5zG-FmYVZ-88" target="egNsY3Ynns_5zG-FmYVZ-99" edge="1">
          <mxGeometry relative="1" as="geometry" />
        </mxCell>
        <mxCell id="egNsY3Ynns_5zG-FmYVZ-101" value="Yes" style="edgeLabel;html=1;align=center;verticalAlign=middle;resizable=0;points=[];strokeColor=default;strokeWidth=1;fontFamily=Helvetica;fontSize=12;fontColor=default;fillColor=default;" parent="egNsY3Ynns_5zG-FmYVZ-100" vertex="1" connectable="0">
          <mxGeometry x="-0.1046" relative="1" as="geometry">
            <mxPoint as="offset" />
          </mxGeometry>
        </mxCell>
        <mxCell id="egNsY3Ynns_5zG-FmYVZ-88" value="Are Coordinates Valid?" style="rhombus;whiteSpace=wrap;html=1;strokeColor=default;strokeWidth=1;align=center;verticalAlign=middle;fontFamily=Helvetica;fontSize=12;fontColor=default;fillColor=default;" parent="1" vertex="1">
          <mxGeometry x="1280" y="440" width="80" height="80" as="geometry" />
        </mxCell>
        <mxCell id="egNsY3Ynns_5zG-FmYVZ-93" value="Do Nothing" style="strokeWidth=1;html=1;shape=mxgraph.flowchart.terminator;whiteSpace=wrap;" parent="1" vertex="1">
          <mxGeometry x="810" y="450" width="100" height="60" as="geometry" />
        </mxCell>
        <mxCell id="egNsY3Ynns_5zG-FmYVZ-99" value="Apply Wall Kick Coordinates" style="rounded=0;whiteSpace=wrap;html=1;strokeColor=default;strokeWidth=1;align=center;verticalAlign=middle;fontFamily=Helvetica;fontSize=12;fontColor=default;fillColor=default;" parent="1" vertex="1">
          <mxGeometry x="1440" y="450" width="120" height="60" as="geometry" />
        </mxCell>
        <mxCell id="-r5Iax4AE7M6-HFP3YKB-1" value="Is Flashlight Grabbed?" style="rhombus;whiteSpace=wrap;html=1;strokeColor=default;strokeWidth=1;align=center;verticalAlign=middle;fontFamily=Helvetica;fontSize=12;fontColor=default;fillColor=default;" vertex="1" parent="1">
          <mxGeometry x="335" y="-200" width="90" height="90" as="geometry" />
        </mxCell>
        <mxCell id="VoOXDM4bnQnNQeRaRrDY-6" style="edgeStyle=orthogonalEdgeStyle;rounded=0;orthogonalLoop=1;jettySize=auto;html=1;entryX=0;entryY=0.5;entryDx=0;entryDy=0;" edge="1" parent="1" source="VoOXDM4bnQnNQeRaRrDY-1" target="egNsY3Ynns_5zG-FmYVZ-61">
          <mxGeometry relative="1" as="geometry" />
        </mxCell>
        <mxCell id="VoOXDM4bnQnNQeRaRrDY-13" value="Yes" style="edgeLabel;html=1;align=center;verticalAlign=middle;resizable=0;points=[];" vertex="1" connectable="0" parent="VoOXDM4bnQnNQeRaRrDY-6">
          <mxGeometry x="-0.2915" y="-1" relative="1" as="geometry">
            <mxPoint as="offset" />
          </mxGeometry>
        </mxCell>
        <mxCell id="VoOXDM4bnQnNQeRaRrDY-1" value="Is Button-Side Handheld Grabbed?" style="rhombus;whiteSpace=wrap;html=1;strokeColor=default;strokeWidth=1;align=center;verticalAlign=middle;fontFamily=Helvetica;fontSize=12;fontColor=default;fillColor=default;" vertex="1" parent="1">
          <mxGeometry x="480" y="240" width="105" height="110" as="geometry" />
        </mxCell>
        <mxCell id="VoOXDM4bnQnNQeRaRrDY-5" style="edgeStyle=orthogonalEdgeStyle;rounded=0;orthogonalLoop=1;jettySize=auto;html=1;entryX=0;entryY=0.5;entryDx=0;entryDy=0;" edge="1" parent="1" source="VoOXDM4bnQnNQeRaRrDY-3" target="egNsY3Ynns_5zG-FmYVZ-44">
          <mxGeometry relative="1" as="geometry" />
        </mxCell>
        <mxCell id="VoOXDM4bnQnNQeRaRrDY-18" value="Yes" style="edgeLabel;html=1;align=center;verticalAlign=middle;resizable=0;points=[];" vertex="1" connectable="0" parent="VoOXDM4bnQnNQeRaRrDY-5">
          <mxGeometry x="-0.2163" y="2" relative="1" as="geometry">
            <mxPoint as="offset" />
          </mxGeometry>
        </mxCell>
        <mxCell id="VoOXDM4bnQnNQeRaRrDY-3" value="Is Dpad-Side Handheld Grabbed?" style="rhombus;whiteSpace=wrap;html=1;strokeColor=default;strokeWidth=1;align=center;verticalAlign=middle;fontFamily=Helvetica;fontSize=12;fontColor=default;fillColor=default;" vertex="1" parent="1">
          <mxGeometry x="480" y="15" width="105" height="110" as="geometry" />
        </mxCell>
        <mxCell id="VoOXDM4bnQnNQeRaRrDY-11" style="edgeStyle=orthogonalEdgeStyle;rounded=0;orthogonalLoop=1;jettySize=auto;html=1;entryX=0.5;entryY=1;entryDx=0;entryDy=0;entryPerimeter=0;exitX=0.5;exitY=1;exitDx=0;exitDy=0;" edge="1" parent="1" source="egNsY3Ynns_5zG-FmYVZ-88" target="egNsY3Ynns_5zG-FmYVZ-93">
          <mxGeometry relative="1" as="geometry">
            <Array as="points">
              <mxPoint x="1320" y="560" />
              <mxPoint x="860" y="560" />
            </Array>
          </mxGeometry>
        </mxCell>
        <mxCell id="VoOXDM4bnQnNQeRaRrDY-12" value="No" style="edgeLabel;html=1;align=center;verticalAlign=middle;resizable=0;points=[];" vertex="1" connectable="0" parent="VoOXDM4bnQnNQeRaRrDY-11">
          <mxGeometry x="-0.9169" y="2" relative="1" as="geometry">
            <mxPoint x="-2" y="-3" as="offset" />
          </mxGeometry>
        </mxCell>
        <mxCell id="VoOXDM4bnQnNQeRaRrDY-14" style="edgeStyle=orthogonalEdgeStyle;rounded=0;orthogonalLoop=1;jettySize=auto;html=1;entryX=0;entryY=0.5;entryDx=0;entryDy=0;entryPerimeter=0;exitX=0.5;exitY=1;exitDx=0;exitDy=0;" edge="1" parent="1" source="VoOXDM4bnQnNQeRaRrDY-1" target="egNsY3Ynns_5zG-FmYVZ-93">
          <mxGeometry relative="1" as="geometry">
            <Array as="points">
              <mxPoint x="532" y="480" />
            </Array>
          </mxGeometry>
        </mxCell>
        <mxCell id="VoOXDM4bnQnNQeRaRrDY-15" value="No" style="edgeLabel;html=1;align=center;verticalAlign=middle;resizable=0;points=[];" vertex="1" connectable="0" parent="VoOXDM4bnQnNQeRaRrDY-14">
          <mxGeometry x="-0.8617" y="-2" relative="1" as="geometry">
            <mxPoint x="2" as="offset" />
          </mxGeometry>
        </mxCell>
        <mxCell id="VoOXDM4bnQnNQeRaRrDY-16" style="edgeStyle=orthogonalEdgeStyle;rounded=0;orthogonalLoop=1;jettySize=auto;html=1;entryX=0;entryY=0.5;entryDx=0;entryDy=0;entryPerimeter=0;exitX=0.5;exitY=0;exitDx=0;exitDy=0;" edge="1" parent="1" source="VoOXDM4bnQnNQeRaRrDY-3" target="egNsY3Ynns_5zG-FmYVZ-60">
          <mxGeometry relative="1" as="geometry">
            <Array as="points">
              <mxPoint x="532" y="-50" />
            </Array>
          </mxGeometry>
        </mxCell>
        <mxCell id="VoOXDM4bnQnNQeRaRrDY-17" value="No" style="edgeLabel;html=1;align=center;verticalAlign=middle;resizable=0;points=[];" vertex="1" connectable="0" parent="VoOXDM4bnQnNQeRaRrDY-16">
          <mxGeometry x="-0.8919" y="-1" relative="1" as="geometry">
            <mxPoint x="-1" y="11" as="offset" />
          </mxGeometry>
        </mxCell>
      </root>
    </mxGraphModel>
  </diagram>
</mxfile>
